<?xml version="1.0" standalone="no"?>
<!DOCTYPE svg PUBLIC "-//W3C//DTD SVG 20010904//EN"
 "http://www.w3.org/TR/2001/REC-SVG-20010904/DTD/svg10.dtd">
<svg version="1.0" xmlns="http://www.w3.org/2000/svg"
 width="207.000000pt" height="207.000000pt" viewBox="0 0 207.000000 207.000000"
 preserveAspectRatio="xMidYMid meet">
<metadata>
Created by potrace 1.11, written by Peter Selinger 2001-2013
</metadata>
<g transform="translate(0.000000,207.000000) scale(0.100000,-0.100000)"
fill="#000000" stroke="none">
<path d="M649 1900 c-1 -8 -2 -24 -3 -35 0 -11 4 -36 11 -57 6 -20 8 -40 5
-44 -4 -4 -2 -4 4 -1 7 4 20 -5 29 -19 16 -25 16 -28 0 -64 -16 -35 -17 -74
-4 -120 2 -8 13 -19 24 -26 11 -6 19 -16 18 -22 -2 -7 4 -12 12 -12 9 0 26 -9
38 -21 12 -11 41 -34 64 -50 33 -23 41 -26 36 -12 -6 16 -5 17 12 3 10 -8 16
-10 12 -4 -3 6 10 24 30 40 20 16 42 35 50 42 7 7 17 10 23 7 6 -4 9 -1 8 7
-2 7 3 12 10 10 6 -1 11 4 10 10 -2 7 2 12 8 11 7 -1 11 3 11 10 -1 7 2 28 7
48 6 28 3 45 -13 77 l-21 41 24 28 c29 35 46 85 46 132 l-1 36 -20 -25 c-12
-14 -37 -44 -57 -67 l-35 -43 -113 0 -112 0 -48 58 c-27 31 -52 61 -56 67 -5
5 -8 3 -9 -5z"/>
<path d="M1056 1728 c3 -5 10 -6 15 -3 13 9 11 12 -6 12 -8 0 -12 -4 -9 -9z"/>
<path d="M1019 1445 c-104 -98 -158 -108 -236 -46 l-50 39 2 -117 c3 -143 15
-219 60 -361 19 -62 38 -126 41 -143 3 -18 10 -54 14 -82 9 -47 6 -327 -4
-457 l-5 -57 29 3 c18 2 27 -1 23 -7 -3 -5 -1 -7 4 -4 12 8 22 51 29 127 3 30
8 62 11 70 3 8 7 35 8 60 2 25 6 59 9 75 4 17 8 48 11 70 12 96 26 193 30 214
2 13 7 49 10 80 4 31 9 65 12 76 6 18 7 33 12 103 0 13 6 20 11 17 6 -3 10 -2
10 4 0 5 -6 12 -12 15 -7 3 3 4 22 2 19 -1 35 -7 35 -12 -1 -17 -17 -149 -21
-169 -2 -11 -7 -42 -10 -69 -3 -27 -11 -82 -18 -122 -7 -41 -10 -74 -7 -74 3
0 28 25 56 56 60 65 102 95 122 87 12 -5 12 -7 1 -14 -10 -7 -9 -9 5 -9 27 0
21 -9 -42 -67 -56 -50 -96 -112 -107 -164 -9 -44 -6 -137 6 -158 6 -12 8 -21
5 -21 -9 0 47 -84 62 -93 7 -5 11 -13 7 -18 -3 -5 -2 -8 3 -7 14 4 53 -26 53
-42 0 -10 3 -11 8 -4 4 6 30 14 57 17 64 8 106 17 117 23 5 3 16 0 24 -7 9 -7
14 -8 12 -2 -2 6 0 12 4 13 4 1 31 10 59 20 29 11 56 17 60 14 5 -3 9 0 9 6 0
6 5 8 10 5 6 -4 8 -10 5 -15 -3 -4 0 -10 7 -12 29 -10 -6 -36 -74 -56 -64 -19
-109 -29 -258 -58 -19 -4 -214 -8 -432 -10 l-398 -4 0 29 c0 34 25 48 39 23 9
-15 10 -15 11 -1 0 12 9 16 38 15 20 0 40 -5 44 -11 5 -6 8 -5 8 3 0 10 5 10
21 1 15 -8 19 -8 15 0 -4 6 -3 11 2 11 15 0 21 37 9 49 -6 6 -49 11 -99 11
-82 0 -90 -2 -118 -27 -16 -16 -31 -40 -34 -55 -4 -25 29 -108 42 -107 21 3
42 -2 38 -9 -3 -5 1 -9 9 -9 8 0 12 3 10 7 -6 10 98 6 113 -4 7 -4 18 -4 25 1
14 11 117 11 135 0 6 -5 18 -5 24 -1 16 10 79 14 74 5 -3 -4 4 -7 14 -7 10 0
17 3 15 7 -3 3 21 5 52 4 41 -1 59 -6 69 -20 8 -10 14 -14 14 -9 0 6 -5 15
-11 21 -9 9 1 11 39 10 27 -1 49 -4 47 -7 -2 -3 5 -6 15 -6 10 0 17 3 15 7 -6
9 98 4 113 -5 7 -4 19 -2 27 4 12 10 15 10 15 -1 0 -9 3 -10 8 -4 8 12 91 13
110 1 7 -4 19 -3 26 4 11 8 15 8 19 -2 4 -11 6 -11 6 0 1 10 6 10 22 1 15 -8
19 -8 15 0 -9 14 0 14 26 0 11 -6 18 -7 15 -2 -4 6 8 11 26 12 61 5 66 5 62 9
-2 3 13 16 35 31 21 14 40 31 41 36 2 6 7 15 13 22 34 39 34 39 39 138 3 53
-8 150 -27 255 -11 55 -63 205 -92 262 -66 132 -183 271 -294 349 -71 51 -173
159 -209 222 -18 31 -33 57 -34 57 -1 0 -18 -16 -38 -35z"/>
<path d="M996 380 c-4 -36 -7 -67 -7 -70 0 -3 -4 -22 -8 -42 -8 -32 -6 -38 10
-43 10 -4 23 -3 29 0 5 3 10 1 10 -5 0 -7 5 -8 13 -3 6 4 24 8 40 8 34 0 37 8
12 37 -35 40 -56 79 -75 132 l-17 51 -7 -65z"/>
<path d="M1036 192 c-3 -5 1 -9 9 -9 8 0 12 4 9 9 -3 4 -7 8 -9 8 -2 0 -6 -4
-9 -8z"/>
<path d="M1130 76 c0 -2 7 -7 16 -10 8 -3 12 -2 9 4 -6 10 -25 14 -25 6z"/>
<path d="M1290 76 c0 -2 7 -7 16 -10 8 -3 12 -2 9 4 -6 10 -25 14 -25 6z"/>
</g>
</svg>
